# xmcd
#
# Track frame offsets: 
#        150
#        19054
#        40373
#        62627
#        88016
#        96192
#        123687
#        139073
#        156423
#        173373
#        194641
#        204869
#        236239
#
# Disc length: 3627 seconds
#
# Revision: 4
# Processed by: cddbd v1.5.2PL0 Copyright (c) Steve Scherf et al.
# Submitted via: ExactAudioCopy v1.0b1
#
DISCID=b50e290d
DTITLE=The Gathering - Home
DYEAR=2006
DGENRE=Rock
TTITLE0=Shortest Day
TTITLE1=In Between
TTITLE2=Alone
TTITLE3=Waking Hour
TTITLE4=Fatigue
TTITLE5=A Noise Severe
TTITLE6=Forgotten
TTITLE7=Solace
TTITLE8=Your Troubles Are Over
TTITLE9=Box
TTITLE10=The Quiet One
TTITLE11=Home
TTITLE12=Forgotten Reprise
EXTD=
EXTT0=
EXTT1=
EXTT2=
EXTT3=
EXTT4=
EXTT5=
EXTT6=
EXTT7=
EXTT8=
EXTT9=
EXTT10=
EXTT11=
EXTT12=
PLAYORDER=
